<svg xmlns="http://www.w3.org/2000/svg" viewBox="0 0 24 24" fill="none">
    <path d="M14.3324 5.07928C15.7158 3.70328 17.5837 3.61104 18.9904 4.98703C20.405 6.37072 20.2956 8.21563 18.8967 9.56856L14.3324 5.07928ZM13.0585 13.612C13 13.612 11.347 15.1802 11.347 15.1802L7.5643 18.6317C7.22042 18.9469 6.77494 18.9776 6.33728 18.5933L5.00866 19.631C4.80546 19.7848 4.55537 19.7694 4.37561 19.5926L4.14896 19.362C3.96921 19.1852 3.95358 18.9315 4.09426 18.7547L5.14934 17.4402C4.76638 17.002 4.78983 16.5715 5.11808 16.2256L12.363 8.56924C12.2692 7.65447 12.6365 6.7397 13.4493 5.94792L18.0057 10.4372C17.2085 11.2367 16.2629 11.6133 15.3406 11.5288L13.0585 13.612Z" fill="currentColor"></path>
</svg>