<svg xmlns="http://www.w3.org/2000/svg" viewBox="0 0 24 24" fill="none">
    <path d="M8.50453 6.31656V15.4221C8.06384 15.3455 7.57969 15.3565 7.10744 15.456C5.69467 15.7588 4.77339 16.7811 5.04861 17.716C5.18357 18.4487 6.17396 19 7.35408 19C7.61263 19 7.87059 18.9732 8.11832 18.9192C9.22263 18.6852 10.0551 17.9964 10.2012 17.229H10.2233L10.2546 9.41006L16.2799 8.46802V14.1438C15.8317 14.064 15.3364 14.0744 14.8558 14.1764C13.4309 14.4815 12.5012 15.5135 12.7822 16.4776C13.0059 17.244 13.9269 17.7593 15.0728 17.7593C15.34 17.7593 15.6106 17.73 15.8786 17.674C17.1872 17.3911 18 16.6168 18 15.652V5L8.50453 6.31656Z" fill="currentColor"></path>
</svg>